<svg width="19" height="18" viewBox="0 0 19 18" fill="none" xmlns="http://www.w3.org/2000/svg">
<path d="M8.66671 1.06976C8.70548 0.975184 8.77151 0.894282 8.85639 0.837343C8.94127 0.780404 9.04117 0.75 9.14338 0.75C9.24559 0.75 9.34549 0.780404 9.43037 0.837343C9.51525 0.894282 9.58128 0.975184 9.62005 1.06976L11.568 5.75484C11.6044 5.8425 11.6644 5.91841 11.7412 5.97421C11.818 6.03001 11.9087 6.06353 12.0034 6.07109L17.0615 6.47626C17.519 6.51292 17.7041 7.08401 17.3558 7.38192L13.5021 10.6838C13.4301 10.7453 13.3765 10.8256 13.3471 10.9156C13.3176 11.0057 13.3136 11.1021 13.3353 11.1943L14.5132 16.1306C14.5369 16.2296 14.5307 16.3335 14.4954 16.429C14.4601 16.5245 14.3973 16.6074 14.3149 16.6672C14.2325 16.727 14.1342 16.7611 14.0325 16.7651C13.9307 16.7691 13.8301 16.7429 13.7432 16.6898L9.41196 14.0452C9.33109 13.9958 9.23815 13.9696 9.14338 13.9696C9.04861 13.9696 8.95567 13.9958 8.8748 14.0452L4.54355 16.6907C4.4567 16.7438 4.35605 16.7701 4.2543 16.766C4.15255 16.762 4.05428 16.728 3.97188 16.6681C3.88949 16.6083 3.82668 16.5254 3.79138 16.4299C3.75608 16.3344 3.74987 16.2305 3.77355 16.1315L4.95146 11.1943C4.97331 11.1021 4.96929 11.0057 4.93986 10.9156C4.91042 10.8255 4.85671 10.7453 4.78463 10.6838L0.930963 7.38192C0.85336 7.31577 0.797136 7.22808 0.769409 7.12995C0.741683 7.03182 0.743702 6.92766 0.775211 6.83068C0.80672 6.7337 0.866302 6.64825 0.94641 6.58516C1.02652 6.52207 1.12355 6.48416 1.22521 6.47626L6.28338 6.07109C6.37802 6.06353 6.46875 6.03001 6.54557 5.97421C6.62239 5.91841 6.68233 5.8425 6.7188 5.75484L8.66671 1.06976Z" stroke="#D6E0FF" stroke-width="1.5" stroke-linecap="round" stroke-linejoin="round"/>
</svg>
