<svg width="29" height="29" viewBox="0 0 29 29" fill="none" xmlns="http://www.w3.org/2000/svg">
<path d="M14.5 16.6145C14.0046 16.6145 13.5938 16.2037 13.5938 15.7083V9.3645C13.5938 8.86909 14.0046 8.45825 14.5 8.45825C14.9954 8.45825 15.4063 8.86909 15.4063 9.3645V15.7083C15.4063 16.2037 14.9954 16.6145 14.5 16.6145Z" fill="#FF6C6F"/>
<path d="M14.5003 20.8437C14.1741 20.8437 13.872 20.7229 13.6424 20.4933C13.5336 20.3725 13.4491 20.2396 13.3766 20.0946C13.3162 19.9496 13.292 19.7925 13.292 19.6354C13.292 19.3212 13.4249 19.007 13.6424 18.7775C14.0895 18.3304 14.9112 18.3304 15.3583 18.7775C15.5758 19.007 15.7087 19.3212 15.7087 19.6354C15.7087 19.7925 15.6724 19.9496 15.612 20.0946C15.5516 20.2396 15.467 20.3725 15.3583 20.4933C15.1287 20.7229 14.8266 20.8437 14.5003 20.8437Z" fill="#FF6C6F"/>
<path d="M14.5004 27.4896C13.6908 27.4896 12.8691 27.2841 12.1441 26.8612L4.96662 22.7166C3.51662 21.8708 2.61035 20.3121 2.61035 18.6325V10.3675C2.61035 8.68793 3.51662 7.12918 4.96662 6.28334L12.1441 2.13877C13.5941 1.29294 15.3946 1.29294 16.8566 2.13877L24.0342 6.28334C25.4842 7.12918 26.3904 8.68793 26.3904 10.3675V18.6325C26.3904 20.3121 25.4842 21.8708 24.0342 22.7166L16.8566 26.8612C16.1316 27.2841 15.31 27.4896 14.5004 27.4896ZM14.5004 3.32291C14.005 3.32291 13.4975 3.45584 13.0504 3.70959L5.87287 7.85416C4.9787 8.37375 4.42285 9.32835 4.42285 10.3675V18.6325C4.42285 19.6596 4.9787 20.6262 5.87287 21.1458L13.0504 25.2904C13.9445 25.81 15.0562 25.81 15.9383 25.2904L23.1158 21.1458C24.01 20.6262 24.5658 19.6716 24.5658 18.6325V10.3675C24.5658 9.34043 24.01 8.37375 23.1158 7.85416L15.9383 3.70959C15.5033 3.45584 14.9958 3.32291 14.5004 3.32291Z" fill="#FF6C6F"/>
</svg>
