<svg width="13" height="7" viewBox="0 0 13 7" fill="none" xmlns="http://www.w3.org/2000/svg">
<path d="M12.3326 0.34739C12.29 0.244598 12.2179 0.156733 12.1254 0.0949069C12.0329 0.0330803 11.9242 6.85789e-05 11.8129 4.57168e-05H0.562943C0.451627 -4.18855e-05 0.342787 0.0329007 0.250203 0.094703C0.157619 0.156505 0.0854536 0.244389 0.0428428 0.347227C0.000232028 0.450065 -0.0109081 0.563233 0.0108328 0.672406C0.0325736 0.781578 0.0862179 0.881846 0.164974 0.960515L5.78997 6.58551C5.84222 6.63781 5.90425 6.6793 5.97254 6.70761C6.04083 6.73592 6.11402 6.75049 6.18794 6.75049C6.26186 6.75049 6.33506 6.73592 6.40335 6.70761C6.47163 6.6793 6.53367 6.63781 6.58591 6.58551L12.2109 0.960515C12.2896 0.881805 12.3431 0.78154 12.3647 0.672404C12.3864 0.563267 12.3752 0.45016 12.3326 0.34739Z" fill="#E27233"/>
</svg>
