<svg width="13" height="7" viewBox="0 0 13 7" fill="none" xmlns="http://www.w3.org/2000/svg">
<path d="M12.3326 6.4031C12.29 6.50589 12.2179 6.59375 12.1254 6.65558C12.0329 6.71741 11.9242 6.75042 11.8129 6.75044H0.562943C0.451627 6.75053 0.342787 6.71759 0.250203 6.65579C0.157619 6.59398 0.0854536 6.5061 0.0428428 6.40326C0.000232028 6.30042 -0.0109081 6.18726 0.0108328 6.07808C0.0325736 5.96891 0.0862179 5.86864 0.164974 5.78997L5.78997 0.164974C5.84222 0.112674 5.90425 0.0711852 5.97254 0.0428778C6.04083 0.0145704 6.11402 0 6.18794 0C6.26186 0 6.33506 0.0145704 6.40335 0.0428778C6.47163 0.0711852 6.53367 0.112674 6.58591 0.164974L12.2109 5.78997C12.2896 5.86868 12.3431 5.96895 12.3647 6.07808C12.3864 6.18722 12.3752 6.30033 12.3326 6.4031Z" fill="#2CC171"/>
</svg>
