<svg width="14" height="14" viewBox="0 0 14 14" fill="none" xmlns="http://www.w3.org/2000/svg">
<path d="M7.5835 6.85414C7.47267 6.85414 7.36184 6.81331 7.27434 6.72581C7.10517 6.55664 7.10517 6.27664 7.27434 6.10747L12.0577 1.32414C12.2268 1.15497 12.5068 1.15497 12.676 1.32414C12.8452 1.49331 12.8452 1.77331 12.676 1.94247L7.89267 6.72581C7.80517 6.81331 7.69434 6.85414 7.5835 6.85414Z" fill="#0089F1"/>
<path d="M12.8332 4.40425C12.594 4.40425 12.3957 4.20592 12.3957 3.96675V1.60425H10.0332C9.79404 1.60425 9.5957 1.40591 9.5957 1.16675C9.5957 0.927581 9.79404 0.729248 10.0332 0.729248H12.8332C13.0724 0.729248 13.2707 0.927581 13.2707 1.16675V3.96675C13.2707 4.20592 13.0724 4.40425 12.8332 4.40425Z" fill="#0089F1"/>
<path d="M8.75033 13.2709H5.25033C2.08283 13.2709 0.729492 11.9176 0.729492 8.75008V5.25008C0.729492 2.08258 2.08283 0.729248 5.25033 0.729248H6.41699C6.65616 0.729248 6.85449 0.927581 6.85449 1.16675C6.85449 1.40591 6.65616 1.60425 6.41699 1.60425H5.25033C2.56116 1.60425 1.60449 2.56091 1.60449 5.25008V8.75008C1.60449 11.4392 2.56116 12.3959 5.25033 12.3959H8.75033C11.4395 12.3959 12.3962 11.4392 12.3962 8.75008V7.58342C12.3962 7.34425 12.5945 7.14592 12.8337 7.14592C13.0728 7.14592 13.2712 7.34425 13.2712 7.58342V8.75008C13.2712 11.9176 11.9178 13.2709 8.75033 13.2709Z" fill="#0089F1"/>
</svg>
