<svg width="20" height="20" viewBox="0 0 20 20" fill="none" xmlns="http://www.w3.org/2000/svg">
<path d="M10.0003 18.3999C9.75033 18.3999 9.50033 18.3416 9.29199 18.2249C7.73366 17.3749 4.99199 16.4749 3.27533 16.2499L3.03366 16.2166C1.94199 16.0833 1.04199 15.0583 1.04199 13.9499V3.88326C1.04199 3.22492 1.30033 2.62493 1.77533 2.19159C2.25033 1.75826 2.86699 1.54993 3.51699 1.60826C5.35033 1.74993 8.11699 2.66659 9.68366 3.64993L9.88366 3.76659C9.94199 3.79993 10.067 3.79993 10.117 3.77493L10.2503 3.69159C11.817 2.70826 14.5837 1.77493 16.4253 1.61659C16.442 1.61659 16.5087 1.61659 16.5253 1.61659C17.1337 1.55826 17.7587 1.77493 18.2253 2.20826C18.7003 2.64159 18.9587 3.24159 18.9587 3.89992V13.9583C18.9587 15.0749 18.0587 16.0916 16.9587 16.2249L16.6837 16.2583C14.967 16.4833 12.217 17.3916 10.692 18.2333C10.492 18.3499 10.2503 18.3999 10.0003 18.3999ZM3.31699 2.84993C3.05033 2.84993 2.80866 2.94159 2.61699 3.11659C2.40866 3.30826 2.29199 3.58326 2.29199 3.88326V13.9499C2.29199 14.4416 2.71699 14.9166 3.19199 14.9833L3.44199 15.0166C5.31699 15.2666 8.19199 16.2083 9.85866 17.1166C9.93366 17.1499 10.042 17.1583 10.0837 17.1416C11.7503 16.2166 14.642 15.2666 16.5253 15.0166L16.8087 14.9833C17.2837 14.9249 17.7087 14.4416 17.7087 13.9499V3.89159C17.7087 3.58326 17.592 3.31659 17.3837 3.11659C17.167 2.92493 16.892 2.83326 16.5837 2.84993C16.567 2.84993 16.5003 2.84993 16.4837 2.84993C14.892 2.99159 12.3253 3.84993 10.9253 4.72493L10.792 4.81659C10.3337 5.09993 9.68366 5.09993 9.24199 4.82493L9.04199 4.70826C7.61699 3.83326 5.05033 2.98326 3.41699 2.84993C3.38366 2.84993 3.35033 2.84993 3.31699 2.84993Z" fill="#8C8E98"/>
<path d="M10 17.7C9.65833 17.7 9.375 17.4166 9.375 17.075V4.57495C9.375 4.23328 9.65833 3.94995 10 3.94995C10.3417 3.94995 10.625 4.23328 10.625 4.57495V17.075C10.625 17.425 10.3417 17.7 10 17.7Z" fill="#8C8E98"/>
<path d="M6.45801 7.69995H4.58301C4.24134 7.69995 3.95801 7.41662 3.95801 7.07495C3.95801 6.73328 4.24134 6.44995 4.58301 6.44995H6.45801C6.79967 6.44995 7.08301 6.73328 7.08301 7.07495C7.08301 7.41662 6.79967 7.69995 6.45801 7.69995Z" fill="#8C8E98"/>
<path d="M7.08301 10.2H4.58301C4.24134 10.2 3.95801 9.91662 3.95801 9.57495C3.95801 9.23328 4.24134 8.94995 4.58301 8.94995H7.08301C7.42467 8.94995 7.70801 9.23328 7.70801 9.57495C7.70801 9.91662 7.42467 10.2 7.08301 10.2Z" fill="#8C8E98"/>
</svg>
