<svg width="20" height="20" viewBox="0 0 20 20" fill="none" xmlns="http://www.w3.org/2000/svg">
<path d="M12.758 12.5167C12.2747 12.5167 11.7497 12.3584 11.2247 12.0334L10.1247 11.3667C10.0747 11.3334 9.92467 11.3334 9.87467 11.3667L8.77467 12.0334C7.87467 12.5834 6.99134 12.6667 6.28301 12.2667C5.59134 11.8751 5.20801 11.0917 5.20801 10.0667V4.19175C5.20801 2.15841 6.31634 1.04175 8.33301 1.04175H11.6663C13.683 1.04175 14.7913 2.15841 14.7913 4.19175V10.0667C14.7913 11.1001 14.408 11.8834 13.7163 12.2667C13.4247 12.4334 13.0997 12.5167 12.758 12.5167ZM9.99967 10.0917C10.2747 10.0917 10.5497 10.1584 10.7747 10.2917L11.8747 10.9584C12.3663 11.2584 12.8163 11.3334 13.0997 11.1751C13.3747 11.0167 13.533 10.6084 13.533 10.0584V4.19175C13.533 2.85841 12.9747 2.29175 11.658 2.29175H8.32467C7.00801 2.29175 6.44967 2.85841 6.44967 4.19175V10.0667C6.44967 10.6167 6.60801 11.0251 6.88301 11.1834C7.16634 11.3417 7.61634 11.2667 8.10801 10.9667L9.20801 10.3001C9.44967 10.1584 9.72467 10.0917 9.99967 10.0917Z" fill="#8C8E98"/>
<path d="M12.5003 18.9584H7.50033C2.97533 18.9584 1.04199 17.0084 1.04199 12.4418V9.91675C1.04199 6.03342 2.44199 4.06675 5.57533 3.54175C5.90866 3.48342 6.23366 3.71675 6.29199 4.05842C6.35033 4.40009 6.11699 4.71675 5.77533 4.77509C3.26699 5.19175 2.28366 6.63342 2.28366 9.91675V12.4418C2.28366 16.2834 3.69199 17.7084 7.49199 17.7084H12.492C16.292 17.7084 17.7003 16.2834 17.7003 12.4418V9.91675C17.7003 6.58342 16.6837 5.14175 14.067 4.75009C13.7253 4.70009 13.492 4.38342 13.542 4.04175C13.592 3.70009 13.9087 3.46675 14.2503 3.51675C17.5003 4.00009 18.9503 5.96675 18.9503 9.91675V12.4418C18.9587 17.0084 17.0253 18.9584 12.5003 18.9584Z" fill="#8C8E98"/>
</svg>
