<svg width="16" height="16" viewBox="0 0 16 16" fill="none" xmlns="http://www.w3.org/2000/svg">
<path d="M12.947 7.8335H10.667C10.3937 7.8335 10.167 7.60683 10.167 7.3335V2.6735C10.167 2.18016 10.3603 1.72016 10.707 1.3735C11.0537 1.02683 11.5137 0.833496 12.007 0.833496H12.0137C12.847 0.840163 13.6336 1.16683 14.2336 1.76016C14.8336 2.36683 15.1603 3.16683 15.1603 4.00016V5.6135C15.167 6.94016 14.2736 7.8335 12.947 7.8335ZM11.167 6.8335H12.947C13.7203 6.8335 14.167 6.38683 14.167 5.6135V4.00016C14.167 3.42683 13.9403 2.88016 13.5337 2.46683C13.127 2.06683 12.587 1.84016 12.0137 1.8335C12.0137 1.8335 12.0137 1.8335 12.007 1.8335C11.787 1.8335 11.5737 1.92016 11.4137 2.08016C11.2537 2.24016 11.167 2.44683 11.167 2.6735V6.8335Z" fill="#25388C"/>
<path d="M5.99984 15.5535C5.6865 15.5535 5.39318 15.4335 5.17318 15.2068L4.06649 14.0935C4.00649 14.0335 3.91318 14.0268 3.84652 14.0802L2.7065 14.9335C2.35317 15.2002 1.88649 15.2468 1.48649 15.0468C1.08649 14.8468 0.839844 14.4468 0.839844 14.0002V4.00016C0.839844 1.98683 1.99318 0.833496 4.00651 0.833496H12.0065C12.2798 0.833496 12.5065 1.06016 12.5065 1.3335C12.5065 1.60683 12.2798 1.8335 12.0065 1.8335C11.5465 1.8335 11.1732 2.20683 11.1732 2.66683V14.0002C11.1732 14.4468 10.9265 14.8468 10.5265 15.0468C10.1332 15.2468 9.65985 15.2002 9.30652 14.9335L8.1665 14.0802C8.09984 14.0268 8.0065 14.0402 7.95317 14.0935L6.83317 15.2135C6.6065 15.4335 6.31317 15.5535 5.99984 15.5535ZM3.93982 13.0468C4.24649 13.0468 4.54649 13.1602 4.77315 13.3935L5.87984 14.5068C5.91984 14.5468 5.97317 14.5535 5.99984 14.5535C6.0265 14.5535 6.07983 14.5468 6.11983 14.5068L7.23983 13.3868C7.65316 12.9735 8.30652 12.9335 8.76652 13.2868L9.89982 14.1335C9.97315 14.1868 10.0398 14.1668 10.0732 14.1468C10.1065 14.1268 10.1665 14.0868 10.1665 14.0002V2.66683C10.1665 2.36683 10.2398 2.08016 10.3665 1.8335H3.99984C2.51984 1.8335 1.83317 2.52016 1.83317 4.00016V14.0002C1.83317 14.0935 1.89318 14.1335 1.92651 14.1535C1.96651 14.1735 2.03319 14.1868 2.09985 14.1335L3.23983 13.2802C3.44649 13.1268 3.69315 13.0468 3.93982 13.0468Z" fill="#25388C"/>
<path d="M8 6.5H4C3.72667 6.5 3.5 6.27333 3.5 6C3.5 5.72667 3.72667 5.5 4 5.5H8C8.27333 5.5 8.5 5.72667 8.5 6C8.5 6.27333 8.27333 6.5 8 6.5Z" fill="#25388C"/>
<path d="M7.5 9.1665H4.5C4.22667 9.1665 4 8.93984 4 8.6665C4 8.39317 4.22667 8.1665 4.5 8.1665H7.5C7.77333 8.1665 8 8.39317 8 8.6665C8 8.93984 7.77333 9.1665 7.5 9.1665Z" fill="#25388C"/>
</svg>
