<svg width="20" height="20" viewBox="0 0 20 20" fill="none" xmlns="http://www.w3.org/2000/svg">
<path d="M12.758 12.5165C12.2747 12.5165 11.7497 12.3582 11.2247 12.0332L10.1247 11.3665C10.0747 11.3332 9.92467 11.3332 9.87467 11.3665L8.77467 12.0332C7.87467 12.5832 6.99134 12.6665 6.28301 12.2665C5.59134 11.8748 5.20801 11.0915 5.20801 10.0665V4.1915C5.20801 2.15817 6.31634 1.0415 8.33301 1.0415H11.6663C13.683 1.0415 14.7913 2.15817 14.7913 4.1915V10.0665C14.7913 11.0998 14.408 11.8832 13.7163 12.2665C13.4247 12.4332 13.0997 12.5165 12.758 12.5165ZM9.99967 10.0915C10.2747 10.0915 10.5497 10.1582 10.7747 10.2915L11.8747 10.9582C12.3663 11.2582 12.8163 11.3332 13.0997 11.1748C13.3747 11.0165 13.533 10.6082 13.533 10.0582V4.1915C13.533 2.85817 12.9747 2.2915 11.658 2.2915H8.32467C7.00801 2.2915 6.44967 2.85817 6.44967 4.1915V10.0665C6.44967 10.6165 6.60801 11.0248 6.88301 11.1832C7.16634 11.3415 7.61634 11.2665 8.10801 10.9665L9.20801 10.2998C9.44967 10.1582 9.72467 10.0915 9.99967 10.0915Z" fill="white"/>
<path d="M12.5003 18.9582H7.50033C2.97533 18.9582 1.04199 17.0082 1.04199 12.4415V9.91651C1.04199 6.03318 2.44199 4.06651 5.57533 3.54151C5.90866 3.48318 6.23366 3.71651 6.29199 4.05818C6.35033 4.39984 6.11699 4.71651 5.77533 4.77484C3.26699 5.19151 2.28366 6.63318 2.28366 9.91651V12.4415C2.28366 16.2832 3.69199 17.7082 7.49199 17.7082H12.492C16.292 17.7082 17.7003 16.2832 17.7003 12.4415V9.91651C17.7003 6.58318 16.6837 5.14151 14.067 4.74984C13.7253 4.69984 13.492 4.38318 13.542 4.04151C13.592 3.69984 13.9087 3.46651 14.2503 3.51651C17.5003 3.99984 18.9503 5.96651 18.9503 9.91651V12.4415C18.9587 17.0082 17.0253 18.9582 12.5003 18.9582Z" fill="white"/>
</svg>
