<svg width="20" height="20" viewBox="0 0 20 20" fill="none" xmlns="http://www.w3.org/2000/svg">
<path d="M9.99967 10.6248C7.35801 10.6248 5.20801 8.47484 5.20801 5.83317C5.20801 3.1915 7.35801 1.0415 9.99967 1.0415C12.6413 1.0415 14.7913 3.1915 14.7913 5.83317C14.7913 8.47484 12.6413 10.6248 9.99967 10.6248ZM9.99967 2.2915C8.04967 2.2915 6.45801 3.88317 6.45801 5.83317C6.45801 7.78317 8.04967 9.37484 9.99967 9.37484C11.9497 9.37484 13.5413 7.78317 13.5413 5.83317C13.5413 3.88317 11.9497 2.2915 9.99967 2.2915Z" fill="white"/>
<path d="M17.1585 18.9583C16.8168 18.9583 16.5335 18.675 16.5335 18.3333C16.5335 15.4583 13.6001 13.125 10.0001 13.125C6.40013 13.125 3.4668 15.4583 3.4668 18.3333C3.4668 18.675 3.18346 18.9583 2.8418 18.9583C2.50013 18.9583 2.2168 18.675 2.2168 18.3333C2.2168 14.775 5.70846 11.875 10.0001 11.875C14.2918 11.875 17.7835 14.775 17.7835 18.3333C17.7835 18.675 17.5001 18.9583 17.1585 18.9583Z" fill="white"/>
</svg>
