<svg width="20" height="20" viewBox="0 0 20 20" fill="none" xmlns="http://www.w3.org/2000/svg">
<path d="M10 15.625C9.65833 15.625 9.375 15.3417 9.375 15V12.5C9.375 12.1583 9.65833 11.875 10 11.875C10.3417 11.875 10.625 12.1583 10.625 12.5V15C10.625 15.3417 10.3417 15.625 10 15.625Z" fill="white"/>
<path d="M14.6671 18.8H5.33379C3.81712 18.8 2.43379 17.6333 2.18379 16.1417L1.07546 9.50001C0.892122 8.46668 1.40046 7.14168 2.22546 6.48335L8.00046 1.85835C9.11712 0.958348 10.8755 0.966681 12.0005 1.86668L17.7755 6.48335C18.5921 7.14168 19.0921 8.46668 18.9255 9.50001L17.8171 16.1333C17.5671 17.6083 16.1505 18.8 14.6671 18.8ZM9.99212 2.44168C9.55046 2.44168 9.10879 2.57501 8.78379 2.83335L3.00879 7.46668C2.54212 7.84168 2.20879 8.70835 2.30879 9.30001L3.41712 15.9333C3.56712 16.8083 4.44212 17.55 5.33379 17.55H14.6671C15.5588 17.55 16.4338 16.8083 16.5838 15.925L17.6921 9.29168C17.7838 8.70835 17.4505 7.82501 16.9921 7.45835L11.2171 2.84168C10.8838 2.57501 10.4338 2.44168 9.99212 2.44168Z" fill="white"/>
</svg>
