<svg width="18" height="18" viewBox="0 0 18 18" fill="none" xmlns="http://www.w3.org/2000/svg">
<path d="M6.75008 13.3126C6.44258 13.3126 6.18758 13.0576 6.18758 12.7501V9.60761L5.64758 10.1476C5.43008 10.3651 5.07008 10.3651 4.85258 10.1476C4.63508 9.93011 4.63508 9.57011 4.85258 9.35261L6.35258 7.85261C6.51008 7.69511 6.75758 7.64261 6.96758 7.73261C7.17758 7.81511 7.31258 8.02511 7.31258 8.25011V12.7501C7.31258 13.0576 7.05758 13.3126 6.75008 13.3126Z" fill="#D6E0FF"/>
<path d="M8.25008 10.3126C8.10758 10.3126 7.96508 10.2601 7.85258 10.1476L6.35258 8.64758C6.13508 8.43008 6.13508 8.07008 6.35258 7.85258C6.57008 7.63508 6.93008 7.63508 7.14758 7.85258L8.64758 9.35258C8.86508 9.57008 8.86508 9.93008 8.64758 10.1476C8.53508 10.2601 8.39258 10.3126 8.25008 10.3126Z" fill="#D6E0FF"/>
<path d="M11.25 17.0625H6.75C2.6775 17.0625 0.9375 15.3225 0.9375 11.25V6.75C0.9375 2.6775 2.6775 0.9375 6.75 0.9375H10.5C10.8075 0.9375 11.0625 1.1925 11.0625 1.5C11.0625 1.8075 10.8075 2.0625 10.5 2.0625H6.75C3.2925 2.0625 2.0625 3.2925 2.0625 6.75V11.25C2.0625 14.7075 3.2925 15.9375 6.75 15.9375H11.25C14.7075 15.9375 15.9375 14.7075 15.9375 11.25V7.5C15.9375 7.1925 16.1925 6.9375 16.5 6.9375C16.8075 6.9375 17.0625 7.1925 17.0625 7.5V11.25C17.0625 15.3225 15.3225 17.0625 11.25 17.0625Z" fill="#D6E0FF"/>
<path d="M16.5 8.06261H13.5C10.935 8.06261 9.9375 7.06511 9.9375 4.50011V1.50011C9.9375 1.27511 10.0725 1.06511 10.2825 0.982614C10.4925 0.892614 10.7325 0.945114 10.8975 1.10261L16.8975 7.10261C17.055 7.26011 17.1075 7.50761 17.0175 7.71761C16.9275 7.92761 16.725 8.06261 16.5 8.06261ZM11.0625 2.85761V4.50011C11.0625 6.43511 11.565 6.93761 13.5 6.93761H15.1425L11.0625 2.85761Z" fill="#D6E0FF"/>
</svg>
