<svg width="200" height="200" viewBox="0 0 200 200" fill="none" xmlns="http://www.w3.org/2000/svg">
<mask id="mask0_98001_30397" style="mask-type:alpha" maskUnits="userSpaceOnUse" x="0" y="0" width="200" height="200">
<path d="M100 200C155.228 200 200 155.228 200 100C200 44.7715 155.228 0 100 0C44.7715 0 0 44.7715 0 100C0 155.228 44.7715 200 100 200Z" fill="url(#paint0_linear_98001_30397)"/>
</mask>
<g mask="url(#mask0_98001_30397)">
<path d="M100 200C155.228 200 200 155.228 200 100C200 44.7715 155.228 0 100 0C44.7715 0 0 44.7715 0 100C0 155.228 44.7715 200 100 200Z" fill="#232839"/>
<path d="M160 200H40V70.6663C45.656 70.66 51.0785 68.4104 55.0779 64.411C59.0773 60.4116 61.327 54.989 61.3333 49.333H138.667C138.661 52.1349 139.21 54.91 140.284 57.498C141.358 60.0861 142.934 62.4355 144.921 64.4103C146.896 66.3985 149.246 67.9751 151.834 69.049C154.422 70.1228 157.198 70.6726 160 70.6663V200Z" fill="#2C3658"/>
<path d="M100 136C117.673 136 132 121.673 132 104C132 86.3269 117.673 72 100 72C82.3269 72 68 86.3269 68 104C68 121.673 82.3269 136 100 136Z" fill="#FFE1BD"/>
<path d="M108.561 115.414L100 106.853L91.4395 115.414L88.586 112.561L97.1465 104L88.586 95.4394L91.4395 92.5859L100 101.146L108.561 92.5859L111.414 95.4394L102.854 104L111.414 112.561L108.561 115.414Z" fill="#111624"/>
<path d="M117.333 149H82.6665C80.4574 149 78.6665 150.791 78.6665 153C78.6665 155.209 80.4574 157 82.6665 157H117.333C119.542 157 121.333 155.209 121.333 153C121.333 150.791 119.542 149 117.333 149Z" fill="#7584B8"/>
<path d="M129.333 165H70.6665C68.4574 165 66.6665 166.791 66.6665 169C66.6665 171.209 68.4574 173 70.6665 173H129.333C131.542 173 133.333 171.209 133.333 169C133.333 166.791 131.542 165 129.333 165Z" fill="#7584B8"/>
</g>
<defs>
<linearGradient id="paint0_linear_98001_30397" x1="100" y1="0" x2="100" y2="200" gradientUnits="userSpaceOnUse">
<stop stop-color="#E3ECFA"/>
<stop offset="1" stop-color="#DAE7FF"/>
</linearGradient>
</defs>
</svg>
